# Blender 3.6.5
# www.blender.org
mtllib untitled.mtl
o Cylinder
v -0.510561 -0.633143 -0.727445
v -0.533221 1.339734 -0.718937
v -0.316516 -0.632662 -0.712213
v -0.326234 1.362286 -0.699834
v -0.132901 -0.628518 -0.661011
v -0.133823 1.365258 -0.646458
v 0.032208 -0.620951 -0.576648
v 0.046724 1.367309 -0.555558
v 0.172307 -0.610719 -0.463622
v 0.159453 1.381346 -0.408017
v 0.281708 -0.598039 -0.327702
v 0.345115 1.391730 -0.211136
v 0.356044 -0.582966 -0.175670
v 0.373662 1.385334 -0.120782
v 0.392517 -0.565735 -0.015088
v 0.362489 1.377492 0.002907
v 0.389397 -0.546489 0.145991
v 0.423724 1.358176 0.203804
v 0.345692 -0.525027 0.299507
v 0.423382 1.347697 0.395699
v 0.260700 -0.500042 0.438501
v 0.348301 1.332949 0.558433
v 0.136515 -0.471067 0.558350
v 0.234091 1.312887 0.704284
v -0.019581 -0.440388 0.658957
v 0.086696 1.289143 0.830650
v -0.193025 -0.415475 0.747765
v -0.082503 1.268498 0.939897
v -0.361890 -0.411407 0.842725
v -0.257196 1.264440 1.039257
v -0.512516 -0.437404 0.952101
v -0.430803 1.276338 1.123115
v -0.660215 -0.472107 1.039232
v -0.606035 1.290556 1.175077
v -0.811449 -0.502050 1.082089
v -0.781078 1.300913 1.186271
v -0.962489 -0.523687 1.075363
v -0.950518 1.306201 1.154274
v -1.106284 -0.537236 1.020736
v -1.103565 0.462728 0.992903
v -1.235374 -0.544523 0.923402
v -1.253892 0.619221 0.803700
v -1.343179 -0.548012 0.790499
v -1.419135 1.031992 0.392217
v -1.424473 -0.550215 0.630235
v -1.411129 1.016033 0.405453
v -1.489871 -0.548743 0.445227
v -1.401831 0.994833 0.411382
v -1.477238 -0.537103 0.297145
v -1.409010 1.012129 0.406472
v -1.473027 -0.566849 0.074083
v -1.406902 1.036082 0.358077
v -1.423694 -0.577124 -0.111714
v -1.422153 0.878125 -0.034156
v -1.336236 -0.589310 -0.281696
v -1.342264 0.624242 -0.250703
v -1.215960 -0.601898 -0.431261
v -1.213519 0.478315 -0.408443
v -1.066781 -0.613591 -0.554701
v -1.079840 1.367406 -0.542371
v -0.894418 -0.623226 -0.647323
v -0.918140 1.354647 -0.633097
v -0.706191 -0.629924 -0.705618
v -0.746004 1.315727 -0.694732
vn 0.0850 0.0059 -0.9964
vn 0.2678 0.0072 -0.9634
vn 0.4521 0.0064 -0.8920
vn 0.7170 0.0131 -0.6969
vn 0.7475 0.0192 -0.6640
vn 0.9205 -0.0019 -0.3907
vn 0.9960 0.0048 -0.0888
vn 0.9874 0.0020 -0.1585
vn 0.9912 -0.0346 0.1275
vn 0.8805 -0.0666 0.4694
vn 0.7400 -0.0869 0.6669
vn 0.5939 -0.1065 0.7974
vn 0.4955 -0.1231 0.8599
vn 0.4881 -0.1311 0.8629
vn 0.5121 -0.1204 0.8505
vn 0.3989 -0.0961 0.9120
vn 0.1671 -0.0702 0.9834
vn -0.1174 -0.0486 0.9919
vn -0.5655 -0.0119 0.8246
vn -0.7039 0.0432 0.7089
vn -0.8730 0.0613 0.4839
vn -0.8962 0.0689 0.4382
vn -0.9545 0.0555 0.2929
vn -0.9984 0.0511 -0.0259
vn -0.9987 0.0456 -0.0242
vn -0.9973 0.0301 -0.0675
vn -0.9138 0.0150 -0.4059
vn -0.7734 0.0137 -0.6338
vn -0.6831 0.0060 -0.7303
vn -0.4811 0.0014 -0.8767
vn -0.3183 0.9462 0.0580
vn -0.3157 0.0010 -0.9489
vn -0.1122 0.0031 -0.9937
vn 0.0269 -0.9949 0.0967
vt 1.000000 0.500000
vt 1.000000 1.000000
vt 0.968750 1.000000
vt 0.968750 0.500000
vt 0.937500 1.000000
vt 0.937500 0.500000
vt 0.906250 1.000000
vt 0.906250 0.500000
vt 0.875000 1.000000
vt 0.875000 0.500000
vt 0.843750 1.000000
vt 0.843750 0.500000
vt 0.812500 1.000000
vt 0.812500 0.500000
vt 0.781250 1.000000
vt 0.781250 0.500000
vt 0.750000 1.000000
vt 0.750000 0.500000
vt 0.718750 1.000000
vt 0.718750 0.500000
vt 0.687500 1.000000
vt 0.687500 0.500000
vt 0.656250 1.000000
vt 0.656250 0.500000
vt 0.625000 1.000000
vt 0.625000 0.500000
vt 0.593750 1.000000
vt 0.593750 0.500000
vt 0.562500 1.000000
vt 0.562500 0.500000
vt 0.531250 1.000000
vt 0.531250 0.500000
vt 0.500000 1.000000
vt 0.500000 0.500000
vt 0.468750 1.000000
vt 0.468750 0.500000
vt 0.437500 1.000000
vt 0.437500 0.500000
vt 0.406250 1.000000
vt 0.406250 0.500000
vt 0.375000 1.000000
vt 0.375000 0.500000
vt 0.343750 1.000000
vt 0.343750 0.500000
vt 0.312500 1.000000
vt 0.312500 0.500000
vt 0.281250 1.000000
vt 0.281250 0.500000
vt 0.250000 1.000000
vt 0.250000 0.500000
vt 0.218750 1.000000
vt 0.218750 0.500000
vt 0.187500 1.000000
vt 0.187500 0.500000
vt 0.156250 1.000000
vt 0.156250 0.500000
vt 0.125000 1.000000
vt 0.125000 0.500000
vt 0.093750 1.000000
vt 0.093750 0.500000
vt 0.062500 1.000000
vt 0.062500 0.500000
vt 0.296822 0.485388
vt 0.250000 0.490000
vt 0.203178 0.485388
vt 0.158156 0.471731
vt 0.116663 0.449553
vt 0.080294 0.419706
vt 0.050447 0.383337
vt 0.028269 0.341844
vt 0.014612 0.296822
vt 0.010000 0.250000
vt 0.014612 0.203178
vt 0.028269 0.158156
vt 0.050447 0.116663
vt 0.080294 0.080294
vt 0.116663 0.050447
vt 0.158156 0.028269
vt 0.203178 0.014612
vt 0.250000 0.010000
vt 0.296822 0.014612
vt 0.341844 0.028269
vt 0.383337 0.050447
vt 0.419706 0.080294
vt 0.449553 0.116663
vt 0.471731 0.158156
vt 0.485388 0.203178
vt 0.490000 0.250000
vt 0.485388 0.296822
vt 0.471731 0.341844
vt 0.449553 0.383337
vt 0.419706 0.419706
vt 0.383337 0.449553
vt 0.341844 0.471731
vt 0.031250 1.000000
vt 0.031250 0.500000
vt 0.000000 1.000000
vt 0.000000 0.500000
vt 0.750000 0.490000
vt 0.796822 0.485388
vt 0.841844 0.471731
vt 0.883337 0.449553
vt 0.919706 0.419706
vt 0.949553 0.383337
vt 0.971731 0.341844
vt 0.985388 0.296822
vt 0.990000 0.250000
vt 0.985388 0.203178
vt 0.971731 0.158156
vt 0.949553 0.116663
vt 0.919706 0.080294
vt 0.883337 0.050447
vt 0.841844 0.028269
vt 0.796822 0.014612
vt 0.750000 0.010000
vt 0.703178 0.014612
vt 0.658156 0.028269
vt 0.616663 0.050447
vt 0.580294 0.080294
vt 0.550447 0.116663
vt 0.528269 0.158156
vt 0.514612 0.203178
vt 0.510000 0.250000
vt 0.514612 0.296822
vt 0.528269 0.341844
vt 0.550447 0.383337
vt 0.580294 0.419706
vt 0.616663 0.449553
vt 0.658156 0.471731
vt 0.703178 0.485388
s 0
usemtl Material.001
f 1/1/1 2/2/1 4/3/1 3/4/1
f 3/4/2 4/3/2 6/5/2 5/6/2
f 5/6/3 6/5/3 8/7/3 7/8/3
f 7/8/4 8/7/4 10/9/4 9/10/4
f 9/10/5 10/9/5 12/11/5 11/12/5
f 11/12/6 12/11/6 14/13/6 13/14/6
f 13/14/7 14/13/7 16/15/7 15/16/7
f 15/16/8 16/15/8 18/17/8 17/18/8
f 17/18/9 18/17/9 20/19/9 19/20/9
f 19/20/10 20/19/10 22/21/10 21/22/10
f 21/22/11 22/21/11 24/23/11 23/24/11
f 23/24/12 24/23/12 26/25/12 25/26/12
f 25/26/13 26/25/13 28/27/13 27/28/13
f 27/28/14 28/27/14 30/29/14 29/30/14
f 29/30/15 30/29/15 32/31/15 31/32/15
f 31/32/16 32/31/16 34/33/16 33/34/16
f 33/34/17 34/33/17 36/35/17 35/36/17
f 35/36/18 36/35/18 38/37/18 37/38/18
f 37/38/19 38/37/19 40/39/19 39/40/19
f 39/40/20 40/39/20 42/41/20 41/42/20
f 41/42/21 42/41/21 44/43/21 43/44/21
f 43/44/22 44/43/22 46/45/22 45/46/22
f 45/46/23 46/45/23 48/47/23 47/48/23
f 47/48/24 48/47/24 50/49/24 49/50/24
f 49/50/25 50/49/25 52/51/25 51/52/25
f 51/52/26 52/51/26 54/53/26 53/54/26
f 53/54/27 54/53/27 56/55/27 55/56/27
f 55/56/28 56/55/28 58/57/28 57/58/28
f 57/58/29 58/57/29 60/59/29 59/60/29
f 59/60/30 60/59/30 62/61/30 61/62/30
f 4/63/31 2/64/31 64/65/31 62/66/31 60/67/31 58/68/31 56/69/31 54/70/31 52/71/31 50/72/31 48/73/31 46/74/31 44/75/31 42/76/31 40/77/31 38/78/31 36/79/31 34/80/31 32/81/31 30/82/31 28/83/31 26/84/31 24/85/31 22/86/31 20/87/31 18/88/31 16/89/31 14/90/31 12/91/31 10/92/31 8/93/31 6/94/31
f 61/62/32 62/61/32 64/95/32 63/96/32
f 63/96/33 64/95/33 2/97/33 1/98/33
f 1/99/34 3/100/34 5/101/34 7/102/34 9/103/34 11/104/34 13/105/34 15/106/34 17/107/34 19/108/34 21/109/34 23/110/34 25/111/34 27/112/34 29/113/34 31/114/34 33/115/34 35/116/34 37/117/34 39/118/34 41/119/34 43/120/34 45/121/34 47/122/34 49/123/34 51/124/34 53/125/34 55/126/34 57/127/34 59/128/34 61/129/34 63/130/34
