# Blender 3.6.5
# www.blender.org
mtllib untitled.mtl
o Cone
v 0.000000 -1.000000 -1.000000
v 0.195090 -1.000000 -0.980785
v 0.382683 -1.000000 -0.923880
v 0.555570 -1.000000 -0.831470
v 0.707107 -1.000000 -0.707107
v 0.831470 -1.000000 -0.555570
v 0.923880 -1.000000 -0.382683
v 0.980785 -1.000000 -0.195090
v 1.000000 -1.000000 0.000000
v 0.980785 -1.000000 0.195090
v 0.923880 -1.000000 0.382683
v 0.831470 -1.000000 0.555570
v 0.707107 -1.000000 0.707107
v 0.555570 -1.000000 0.831470
v 0.382683 -1.000000 0.923880
v 0.195090 -1.000000 0.980785
v 0.000000 -1.000000 1.000000
v -0.195090 -1.000000 0.980785
v -0.382683 -1.000000 0.923880
v -0.555570 -1.000000 0.831470
v -0.707107 -1.000000 0.707107
v -0.831470 -1.000000 0.555570
v -0.923880 -1.000000 0.382683
v -0.980785 -1.000000 0.195090
v -1.000000 -1.000000 0.000000
v -0.980785 -1.000000 -0.195090
v -0.923880 -1.000000 -0.382683
v -0.831470 -1.000000 -0.555570
v -0.707107 -1.000000 -0.707107
v -0.555570 -1.000000 -0.831470
v -0.382683 -1.000000 -0.923880
v -0.195090 -1.000000 -0.980785
v 0.000000 1.000000 0.000000
vn 0.0878 0.4455 -0.8910
vn 0.2599 0.4455 -0.8567
vn 0.4220 0.4455 -0.7896
vn 0.5680 0.4455 -0.6921
vn 0.6921 0.4455 -0.5680
vn 0.7896 0.4455 -0.4220
vn 0.8567 0.4455 -0.2599
vn 0.8910 0.4455 -0.0878
vn 0.8910 0.4455 0.0878
vn 0.8567 0.4455 0.2599
vn 0.7896 0.4455 0.4220
vn 0.6921 0.4455 0.5680
vn 0.5680 0.4455 0.6921
vn 0.4220 0.4455 0.7896
vn 0.2599 0.4455 0.8567
vn 0.0878 0.4455 0.8910
vn -0.0878 0.4455 0.8910
vn -0.2599 0.4455 0.8567
vn -0.4220 0.4455 0.7896
vn -0.5680 0.4455 0.6921
vn -0.6921 0.4455 0.5680
vn -0.7896 0.4455 0.4220
vn -0.8567 0.4455 0.2599
vn -0.8910 0.4455 0.0878
vn -0.8910 0.4455 -0.0878
vn -0.8567 0.4455 -0.2599
vn -0.7896 0.4455 -0.4220
vn -0.6921 0.4455 -0.5680
vn -0.5680 0.4455 -0.6921
vn -0.4220 0.4455 -0.7896
vn -0.0000 -1.0000 -0.0000
vn -0.2599 0.4455 -0.8567
vn -0.0878 0.4455 -0.8910
vt 0.241988 0.432137
vt 0.009591 0.009591
vt 0.272584 0.411364
vt 0.297256 0.389180
vt 0.316438 0.489786
vt 0.316438 0.009591
vt 0.353413 0.490409
vt 0.393152 0.486584
vt 0.434125 0.478457
vt 0.474759 0.466341
vt 0.513492 0.450700
vt 0.548835 0.432137
vt 0.579431 0.411364
vt 0.604103 0.389180
vt 0.009591 0.989786
vt 0.009591 0.509591
vt 0.046567 0.990409
vt 0.086305 0.986584
vt 0.127278 0.978457
vt 0.167912 0.966341
vt 0.206645 0.950700
vt 0.241988 0.932137
vt 0.272584 0.911364
vt 0.297256 0.889180
vt 0.623285 0.489786
vt 0.623285 0.009591
vt 0.660260 0.490409
vt 0.699999 0.486584
vt 0.740972 0.478457
vt 0.781606 0.466341
vt 0.820339 0.450700
vt 0.855682 0.432137
vt 0.886278 0.411364
vt 0.910950 0.389180
vt 0.009591 0.489786
vt 0.046567 0.490409
vt 0.086305 0.486584
vt 0.127278 0.478457
vt 0.167912 0.466341
vt 0.746951 0.746049
vt 0.738679 0.787636
vt 0.722452 0.826810
vt 0.698895 0.862066
vt 0.668913 0.892048
vt 0.633657 0.915606
vt 0.594482 0.931832
vt 0.552895 0.940104
vt 0.510493 0.940104
vt 0.468906 0.931832
vt 0.429732 0.915606
vt 0.394476 0.892048
vt 0.364493 0.862066
vt 0.340936 0.826810
vt 0.324710 0.787636
vt 0.316438 0.746048
vt 0.316438 0.703647
vt 0.324710 0.662059
vt 0.340936 0.622885
vt 0.364494 0.587629
vt 0.394476 0.557647
vt 0.429732 0.534089
vt 0.468906 0.517863
vt 0.510494 0.509591
vt 0.552895 0.509591
vt 0.594483 0.517863
vt 0.633657 0.534089
vt 0.668913 0.557647
vt 0.698895 0.587629
vt 0.722453 0.622885
vt 0.738679 0.662059
vt 0.746951 0.703647
vt 0.206645 0.450700
s 0
usemtl Material.001
f 1/1/1 33/2/1 2/3/1
f 2/3/2 33/2/2 3/4/2
f 3/5/3 33/6/3 4/7/3
f 4/7/4 33/6/4 5/8/4
f 5/8/5 33/6/5 6/9/5
f 6/9/6 33/6/6 7/10/6
f 7/10/7 33/6/7 8/11/7
f 8/11/8 33/6/8 9/12/8
f 9/12/9 33/6/9 10/13/9
f 10/13/10 33/6/10 11/14/10
f 11/15/11 33/16/11 12/17/11
f 12/17/12 33/16/12 13/18/12
f 13/18/13 33/16/13 14/19/13
f 14/19/14 33/16/14 15/20/14
f 15/20/15 33/16/15 16/21/15
f 16/21/16 33/16/16 17/22/16
f 17/22/17 33/16/17 18/23/17
f 18/23/18 33/16/18 19/24/18
f 19/25/19 33/26/19 20/27/19
f 20/27/20 33/26/20 21/28/20
f 21/28/21 33/26/21 22/29/21
f 22/29/22 33/26/22 23/30/22
f 23/30/23 33/26/23 24/31/23
f 24/31/24 33/26/24 25/32/24
f 25/32/25 33/26/25 26/33/25
f 26/33/26 33/26/26 27/34/26
f 27/35/27 33/2/27 28/36/27
f 28/36/28 33/2/28 29/37/28
f 29/37/29 33/2/29 30/38/29
f 30/38/30 33/2/30 31/39/30
f 1/40/31 2/41/31 3/42/31 4/43/31 5/44/31 6/45/31 7/46/31 8/47/31 9/48/31 10/49/31 11/50/31 12/51/31 13/52/31 14/53/31 15/54/31 16/55/31 17/56/31 18/57/31 19/58/31 20/59/31 21/60/31 22/61/31 23/62/31 24/63/31 25/64/31 26/65/31 27/66/31 28/67/31 29/68/31 30/69/31 31/70/31 32/71/31
f 31/39/32 33/2/32 32/72/32
f 32/72/33 33/2/33 1/1/33
